<?xml version="1.0" encoding="UTF-8"?>
<svg width="100" height="100" viewBox="0 0 100 100" xmlns="http://www.w3.org/2000/svg">
  <!-- Body -->
  <ellipse cx="50" cy="50" rx="20" ry="12" fill="#8B8B8B"/>
  
  <!-- Head -->
  <circle cx="70" cy="40" r="10" fill="#A9A9A9"/>
  
  <!-- Ears -->
  <path d="M75,30 L80,25 L78,35 Z" fill="#696969"/>
  <path d="M75,35 L80,30 L78,40 Z" fill="#696969"/>
  
  <!-- Eyes -->
  <circle cx="73" cy="38" r="2" fill="#FFD700"/>
  <circle cx="67" cy="38" r="2" fill="#FFD700"/>
  <circle cx="73" cy="38" r="1" fill="#000000"/>
  <circle cx="67" cy="38" r="1" fill="#000000"/>
  
  <!-- Nose -->
  <circle cx="70" cy="42" r="1.5" fill="#000000"/>
  
  <!-- Mouth -->
  <path d="M67,43 Q70,45 73,43" stroke="#000000" stroke-width="1" fill="none"/>
  
  <!-- Tail -->
  <path d="M25,50 Q15,45 10,55" stroke="#696969" stroke-width="4" stroke-linecap="round"/>
  
  <!-- Legs -->
  <path d="M40,60 L35,75" stroke="#8B8B8B" stroke-width="6" stroke-linecap="round"/>
  <path d="M60,60 L65,75" stroke="#8B8B8B" stroke-width="6" stroke-linecap="round"/>
  <path d="M45,60 L40,75" stroke="#8B8B8B" stroke-width="6" stroke-linecap="round"/>
  <path d="M55,60 L60,75" stroke="#8B8B8B" stroke-width="6" stroke-linecap="round"/>
</svg>