<svg xmlns="http://www.w3.org/2000/svg" viewBox="0 0 512 512">
  <!-- Logo WildZimut - Jeu de stratégie tour par tour -->
  
  <!-- Bouclier -->
  <path d="M256 48C141 48 48 141 48 256s93 208 208 208 208-93 208-208S371 48 256 48zm0 368c-88 0-159-71-159-159s71-159 159-159 159 71 159 159-71 159-159 159z" fill="#1E40AF"/>
  
  <!-- Épée (diagonale) -->
  <path d="M400 112L288 224L112 400L80 368L208 256L368 80L400 112z" fill="#DC2626"/>
  
  <!-- Lame de l'épée -->
  <path d="M368 80L448 0L480 32L368 112z" fill="#7C2D12"/>
  
  <!-- Poignée de l'épée -->
  <rect x="240" y="240" width="32" height="80" fill="#D4AF37" rx="4"/>
  
  <!-- Contour du bouclier -->
  <path d="M256 48C141 48 48 141 48 256s93 208 208 208 208-93 208-208S371 48 256 48zm0 368c-88 0-159-71-159-159s71-159 159-159 159 71 159 159-71 159-159 159z" fill="none" stroke="#0EA5E9" stroke-width="8"/>
  
  <!-- Texte WildZimut -->
  <text x="256" y="420" font-family="Arial, sans-serif" font-size="64" font-weight="bold" fill="#F1C40F" text-anchor="middle" dominant-baseline="middle">WildZimut</text>
  
  <!-- Sous-titre -->
  <text x="256" y="470" font-family="Arial, sans-serif" font-size="24" fill="#E2E8F0" text-anchor="middle" dominant-baseline="middle">Stratégie Tour par Tour</text>
</svg>
